<svg version="1.2" baseProfile="tiny-ps" xmlns="http://www.w3.org/2000/svg" viewBox="0 0 791 119" width="791" height="119">
	<title>NevadaCanyonGold_Logo-svg</title>
	<defs>
		<linearGradient id="grd1" gradientUnits="userSpaceOnUse"  x1="42.767" y1="22.236" x2="119.867" y2="22.236">
			<stop offset="0" stop-color="#6b5a24"  />
			<stop offset="0.3" stop-color="#b0995f"  />
		</linearGradient>
		<linearGradient id="grd2" gradientUnits="userSpaceOnUse"  x1="21.449" y1="76.447" x2="21.45" y2="1.131">
			<stop offset="0" stop-color="#6b5a24"  />
			<stop offset="0.3" stop-color="#b0995f"  />
		</linearGradient>
		<linearGradient id="grd3" gradientUnits="userSpaceOnUse"  x1="98.55" y1="43.554" x2="98.55" y2="118.869">
			<stop offset="0" stop-color="#6b5a24"  />
			<stop offset="0.3" stop-color="#b0995f"  />
		</linearGradient>
		<linearGradient id="grd4" gradientUnits="userSpaceOnUse"  x1="0.132" y1="97.763" x2="77.233" y2="97.763">
			<stop offset="0.7" stop-color="#b0995f"  />
			<stop offset="1" stop-color="#6b5a24"  />
		</linearGradient>
	</defs>
	<style>
		tspan { white-space:pre }
		.shp0 { fill: #ffffff } 
		.shp1 { fill: url(#grd1) } 
		.shp2 { fill: url(#grd2) } 
		.shp3 { fill: url(#grd3) } 
		.shp4 { fill: url(#grd4) } 
	</style>
	<g id="Layer">
		<path id="Layer" class="shp0" d="M200.83 43.05L200.83 85.64L191.83 85.64L170.05 52.97L170.05 85.64L162.51 85.64L162.51 43.05L171.51 43.05L193.29 75.72L193.29 43.05L200.83 43.05Z" />
		<path id="Layer" fill-rule="evenodd" class="shp0" d="M215.84 85.64C214.66 85.64 213.55 85.42 212.49 84.97C211.44 84.52 210.52 83.91 209.75 83.11C208.98 82.32 208.37 81.4 207.92 80.34C207.47 79.29 207.25 78.17 207.25 76.99L207.25 61.29C207.25 60.07 207.47 58.95 207.92 57.91C208.37 56.88 208.97 55.96 209.75 55.17C210.52 54.38 211.43 53.76 212.49 53.31C213.54 52.86 214.66 52.64 215.84 52.64L229.47 52.64C230.65 52.64 231.75 52.86 232.79 53.31C233.82 53.76 234.72 54.35 235.47 55.1C236.22 55.85 236.82 56.74 237.27 57.78C237.72 58.81 237.94 59.92 237.94 61.1L237.94 71.38L214.2 71.38L214.2 76.07C214.2 77.08 214.53 77.93 215.2 78.59C215.87 79.26 216.69 79.59 217.66 79.59L227.52 79.59C228.49 79.59 229.32 79.26 230.01 78.59C230.7 77.92 231.04 77.08 231.04 76.07L231.04 75.22L237.92 75.22L237.92 77.41C237.92 78.63 237.69 79.73 237.22 80.73C236.75 81.72 236.12 82.59 235.33 83.32C234.54 84.05 233.63 84.62 232.59 85.02C231.56 85.43 230.45 85.63 229.27 85.63L215.84 85.63L215.84 85.64ZM215.21 59.69C214.54 60.36 214.21 61.2 214.21 62.21L214.21 65.98L231.06 65.98L231.06 62.03C231.06 61.06 230.75 60.26 230.12 59.63C229.49 59 228.69 58.69 227.72 58.69L217.67 58.69C216.7 58.69 215.87 59.02 215.21 59.69Z" />
		<path id="Layer" class="shp0" d="M275.71 52.66L261.41 85.64L254.17 85.64L239.81 52.66L247.41 52.66L257.63 78.28L257.81 78.28L268.09 52.66L275.71 52.66Z" />
		<path id="Layer" fill-rule="evenodd" class="shp0" d="M286.23 85.64C285.01 85.64 283.89 85.41 282.85 84.94C281.82 84.47 280.9 83.84 280.11 83.05C279.32 82.26 278.7 81.35 278.25 80.31C277.8 79.28 277.58 78.17 277.58 76.99L277.58 61.29C277.58 60.07 277.81 58.95 278.28 57.91C278.75 56.88 279.38 55.96 280.17 55.17C280.96 54.38 281.87 53.76 282.91 53.31C283.94 52.86 285.05 52.64 286.23 52.64L308.25 52.64L308.25 85.62L301.25 85.62L301.25 81.12L295.96 85.62L286.23 85.62L286.23 85.64ZM299.13 79.56C299.7 79.56 300.19 79.36 300.62 78.95C301.05 78.55 301.26 78.04 301.26 77.43L301.26 58.81L288.12 58.81C287.15 58.81 286.31 59.14 285.63 59.81C284.94 60.48 284.6 61.3 284.6 62.27L284.6 76.02C284.6 77.03 284.94 77.88 285.63 78.54C286.32 79.21 287.15 79.54 288.12 79.54L299.13 79.54L299.13 79.56Z" />
		<path id="Layer" fill-rule="evenodd" class="shp0" d="M345.78 40.86L345.78 85.64L338.72 85.64L338.72 81.14L333.43 85.64L322.97 85.64C321.75 85.64 320.63 85.41 319.59 84.94C318.56 84.47 317.64 83.84 316.85 83.05C316.06 82.26 315.44 81.35 314.99 80.31C314.54 79.28 314.32 78.17 314.32 76.99L314.32 61.29C314.32 60.07 314.55 58.95 315.02 57.91C315.49 56.88 316.12 55.96 316.91 55.17C317.7 54.38 318.61 53.76 319.65 53.31C320.68 52.86 321.79 52.64 322.97 52.64L338.73 52.64L338.73 40.86L345.78 40.86ZM336.59 79.56C337.16 79.56 337.65 79.36 338.08 78.95C338.51 78.55 338.72 78.04 338.72 77.43L338.72 58.81L324.85 58.81C323.88 58.81 323.04 59.14 322.36 59.81C321.67 60.48 321.33 61.3 321.33 62.27L321.33 76.02C321.33 77.03 321.67 77.88 322.36 78.54C323.05 79.21 323.88 79.54 324.85 79.54L336.59 79.54L336.59 79.56Z" />
		<path id="Layer" fill-rule="evenodd" class="shp0" d="M360.49 85.64C359.27 85.64 358.15 85.41 357.11 84.94C356.08 84.47 355.16 83.84 354.37 83.05C353.58 82.26 352.96 81.35 352.51 80.31C352.06 79.28 351.84 78.17 351.84 76.99L351.84 61.29C351.84 60.07 352.07 58.95 352.54 57.91C353.01 56.88 353.64 55.96 354.43 55.17C355.22 54.38 356.13 53.76 357.17 53.31C358.2 52.86 359.31 52.64 360.49 52.64L382.51 52.64L382.51 85.62L375.51 85.62L375.51 81.12L370.22 85.62L360.49 85.62L360.49 85.64ZM373.38 79.56C373.95 79.56 374.44 79.36 374.87 78.95C375.3 78.55 375.51 78.04 375.51 77.43L375.51 58.81L362.37 58.81C361.4 58.81 360.56 59.14 359.88 59.81C359.19 60.48 358.85 61.3 358.85 62.27L358.85 76.02C358.85 77.03 359.19 77.88 359.88 78.54C360.57 79.21 361.4 79.54 362.37 79.54L373.38 79.54L373.38 79.56Z" />
		<path id="Layer" class="shp0" d="M422.48 85.64C421.18 85.64 419.96 85.4 418.83 84.91C417.69 84.42 416.69 83.75 415.82 82.9C414.95 82.05 414.26 81.04 413.75 79.89C413.24 78.73 412.99 77.51 412.99 76.21L412.99 52.54C412.99 51.28 413.24 50.08 413.75 48.92C414.26 47.76 414.94 46.75 415.79 45.88C416.64 45.01 417.65 44.32 418.8 43.81C419.96 43.3 421.18 43.05 422.48 43.05L441.04 43.05C442.3 43.05 443.5 43.3 444.66 43.81C445.82 44.32 446.83 45 447.7 45.85C448.57 46.7 449.26 47.71 449.77 48.86C450.28 50.02 450.53 51.24 450.53 52.54L450.53 55.46L442.92 55.46L442.92 53.39C442.92 52.34 442.54 51.43 441.79 50.68C441.04 49.93 440.14 49.55 439.08 49.55L424.42 49.55C423.36 49.55 422.46 49.94 421.71 50.71C420.96 51.48 420.58 52.39 420.58 53.45L420.58 75.29C420.58 76.35 420.96 77.26 421.71 78.03C422.46 78.8 423.36 79.19 424.42 79.19L439.08 79.19C440.13 79.19 441.04 78.81 441.79 78.03C442.54 77.26 442.92 76.35 442.92 75.29L442.92 73.28L450.53 73.28L450.53 76.2C450.53 77.5 450.28 78.72 449.77 79.85C449.26 80.99 448.57 81.98 447.7 82.83C446.83 83.68 445.81 84.36 444.66 84.87C443.5 85.38 442.3 85.63 441.04 85.63L422.48 85.63L422.48 85.64Z" />
		<path id="Layer" fill-rule="evenodd" class="shp0" d="M464.32 85.64C463.1 85.64 461.98 85.41 460.94 84.94C459.91 84.47 458.99 83.84 458.2 83.05C457.41 82.26 456.79 81.35 456.34 80.31C455.89 79.28 455.67 78.17 455.67 76.99L455.67 61.29C455.67 60.07 455.9 58.95 456.37 57.91C456.84 56.88 457.47 55.96 458.26 55.17C459.05 54.38 459.96 53.76 461 53.31C462.03 52.86 463.14 52.64 464.32 52.64L486.34 52.64L486.34 85.62L479.34 85.62L479.34 81.12L474.05 85.62L464.32 85.62L464.32 85.64ZM477.22 79.56C477.79 79.56 478.28 79.36 478.71 78.95C479.14 78.55 479.35 78.04 479.35 77.43L479.35 58.81L466.21 58.81C465.24 58.81 464.4 59.14 463.72 59.81C463.03 60.48 462.69 61.3 462.69 62.27L462.69 76.02C462.69 77.03 463.03 77.88 463.72 78.54C464.41 79.21 465.24 79.54 466.21 79.54L477.22 79.54L477.22 79.56Z" />
		<path id="Layer" class="shp0" d="M499.91 85.64L492.91 85.64L492.91 52.66L499.91 52.66L499.91 56.98L505.02 52.66L515.67 52.66C516.85 52.66 517.95 52.88 518.99 53.33C520.02 53.78 520.94 54.39 521.73 55.19C522.52 55.98 523.15 56.89 523.62 57.93C524.09 58.96 524.32 60.09 524.32 61.31L524.32 85.65L517.26 85.65L517.26 62.29C517.26 61.32 516.92 60.5 516.26 59.83C515.59 59.16 514.77 58.83 513.8 58.83L502.06 58.83C501.49 58.83 501 59.02 500.57 59.41C500.14 59.8 499.93 60.29 499.93 60.9L499.93 85.64L499.91 85.64Z" />
		<path id="Layer" class="shp0" d="M541.04 83.69L526.44 52.66L534.11 52.66L544.7 76.15L554.8 52.66L562.34 52.66L542.02 97.56L534.48 97.56L541.04 83.69Z" />
		<path id="Layer" fill-rule="evenodd" class="shp0" d="M587.34 52.66C588.52 52.66 589.62 52.88 590.65 53.33C591.69 53.78 592.6 54.39 593.39 55.19C594.18 55.98 594.81 56.89 595.28 57.93C595.75 58.96 595.98 60.09 595.98 61.31L595.98 77C595.98 78.18 595.76 79.28 595.31 80.32C594.86 81.35 594.26 82.27 593.49 83.06C592.72 83.85 591.81 84.48 590.75 84.95C589.69 85.42 588.56 85.65 587.34 85.65L572.74 85.65C571.6 85.65 570.52 85.43 569.49 84.98C568.45 84.53 567.54 83.92 566.75 83.12C565.96 82.33 565.33 81.42 564.86 80.38C564.39 79.35 564.16 78.22 564.16 77L564.16 61.3C564.16 60.17 564.38 59.07 564.83 58.01C565.28 56.96 565.88 56.03 566.66 55.24C567.43 54.45 568.34 53.82 569.4 53.35C570.45 52.88 571.57 52.65 572.75 52.65L587.34 52.65L587.34 52.66ZM588.92 62.28C588.92 61.31 588.59 60.49 587.92 59.82C587.25 59.15 586.43 58.82 585.46 58.82L574.69 58.82C573.72 58.82 572.88 59.15 572.2 59.82C571.51 60.49 571.17 61.31 571.17 62.28L571.17 76.03C571.17 77.04 571.51 77.89 572.2 78.55C572.89 79.22 573.72 79.55 574.69 79.55L585.46 79.55C586.43 79.55 587.25 79.22 587.92 78.55C588.59 77.88 588.92 77.04 588.92 76.03L588.92 62.28Z" />
		<path id="Layer" class="shp0" d="M609.05 85.64L602.05 85.64L602.05 52.66L609.05 52.66L609.05 56.98L614.16 52.66L624.81 52.66C625.99 52.66 627.09 52.88 628.13 53.33C629.16 53.78 630.08 54.39 630.87 55.19C631.66 55.98 632.29 56.89 632.76 57.93C633.23 58.96 633.46 60.09 633.46 61.31L633.46 85.65L626.4 85.65L626.4 62.29C626.4 61.32 626.06 60.5 625.4 59.83C624.73 59.16 623.91 58.83 622.94 58.83L611.2 58.83C610.63 58.83 610.14 59.02 609.71 59.41C609.28 59.8 609.07 60.29 609.07 60.9L609.07 85.64L609.05 85.64Z" />
		<path id="Layer" class="shp0" d="M690.51 79.19C691.56 79.19 692.48 78.81 693.25 78.03C694.02 77.26 694.41 76.35 694.41 75.29L694.41 68.17L683.09 68.17L683.09 61.66L702.07 61.66L702.07 76.2C702.07 77.46 701.82 78.65 701.31 79.79C700.8 80.93 700.12 81.93 699.27 82.8C698.42 83.67 697.41 84.36 696.26 84.87C695.1 85.38 693.86 85.63 692.52 85.63L673.41 85.63C672.15 85.63 670.96 85.38 669.82 84.87C668.68 84.36 667.68 83.68 666.81 82.83C665.94 81.98 665.24 80.99 664.71 79.85C664.18 78.72 663.92 77.5 663.92 76.2L663.92 52.53C663.92 51.27 664.17 50.07 664.68 48.91C665.19 47.75 665.87 46.74 666.72 45.87C667.57 45 668.58 44.31 669.73 43.8C670.89 43.29 672.11 43.04 673.41 43.04L692.52 43.04C693.78 43.04 694.98 43.29 696.14 43.8C697.3 44.31 698.31 44.99 699.18 45.84C700.05 46.69 700.75 47.7 701.28 48.85C701.81 50.01 702.07 51.23 702.07 52.53L702.07 55.45L694.4 55.45L694.4 53.38C694.4 52.33 694.02 51.42 693.27 50.67C692.52 49.92 691.62 49.54 690.56 49.54L675.41 49.54C674.36 49.54 673.44 49.92 672.67 50.67C671.9 51.42 671.51 52.32 671.51 53.38L671.51 75.28C671.51 76.34 671.89 77.25 672.67 78.02C673.44 78.79 674.35 79.18 675.41 79.18L690.51 79.18L690.51 79.19Z" />
		<path id="Layer" fill-rule="evenodd" class="shp0" d="M731.27 52.66C732.45 52.66 733.55 52.88 734.58 53.33C735.62 53.78 736.53 54.39 737.32 55.19C738.11 55.98 738.74 56.89 739.21 57.93C739.68 58.96 739.91 60.09 739.91 61.31L739.91 77C739.91 78.18 739.69 79.28 739.24 80.32C738.79 81.35 738.19 82.27 737.42 83.06C736.65 83.85 735.74 84.48 734.68 84.95C733.62 85.42 732.49 85.65 731.27 85.65L716.67 85.65C715.53 85.65 714.45 85.43 713.42 84.98C712.38 84.53 711.47 83.92 710.68 83.12C709.89 82.33 709.26 81.42 708.79 80.38C708.32 79.35 708.09 78.22 708.09 77L708.09 61.3C708.09 60.17 708.31 59.07 708.76 58.01C709.21 56.96 709.81 56.03 710.59 55.24C711.36 54.45 712.27 53.82 713.33 53.35C714.38 52.88 715.5 52.65 716.68 52.65L731.27 52.65L731.27 52.66ZM732.85 62.28C732.85 61.31 732.52 60.49 731.85 59.82C731.18 59.15 730.36 58.82 729.39 58.82L718.62 58.82C717.65 58.82 716.81 59.15 716.13 59.82C715.44 60.49 715.1 61.31 715.1 62.28L715.1 76.03C715.1 77.04 715.44 77.89 716.13 78.55C716.82 79.22 717.65 79.55 718.62 79.55L729.39 79.55C730.36 79.55 731.18 79.22 731.85 78.55C732.52 77.88 732.85 77.04 732.85 76.03L732.85 62.28Z" />
		<path id="Layer" class="shp0" d="M753.11 40.86L753.11 85.64L746.05 85.64L746.05 40.86L753.11 40.86Z" />
		<path id="Layer" fill-rule="evenodd" class="shp0" d="M790.7 40.86L790.7 85.64L783.64 85.64L783.64 81.14L778.35 85.64L767.89 85.64C766.67 85.64 765.55 85.41 764.51 84.94C763.48 84.47 762.56 83.84 761.77 83.05C760.98 82.26 760.36 81.35 759.91 80.31C759.46 79.28 759.24 78.17 759.24 76.99L759.24 61.29C759.24 60.07 759.47 58.95 759.94 57.91C760.41 56.88 761.04 55.96 761.83 55.17C762.62 54.38 763.53 53.76 764.57 53.31C765.6 52.86 766.71 52.64 767.89 52.64L783.65 52.64L783.65 40.86L790.7 40.86ZM781.51 79.56C782.08 79.56 782.57 79.36 783 78.95C783.43 78.55 783.64 78.04 783.64 77.43L783.64 58.81L769.77 58.81C768.8 58.81 767.96 59.14 767.28 59.81C766.59 60.48 766.25 61.3 766.25 62.27L766.25 76.02C766.25 77.03 766.59 77.88 767.28 78.54C767.97 79.21 768.8 79.54 769.77 79.54L781.51 79.54L781.51 79.56Z" />
	</g>
	<path id="Layer" class="shp1" d="M77.23 0.92L42.77 35.39L42.77 43.55L77.23 43.55L119.87 43.55L119.87 0.92L77.23 0.92Z" />
	<path id="Layer" class="shp2" d="M42.77 76.45L42.77 43.76L42.77 1.13L0.13 1.13L0.13 43.76L32.81 76.45L42.77 76.45Z" />
	<path id="Layer" class="shp3" d="M77.23 43.55L77.23 76.24L77.23 118.87L119.87 118.87L119.87 76.24L87.18 43.55L77.23 43.55Z" />
	<path id="Layer" class="shp4" d="M77.23 76.45L42.77 76.45L0.13 76.45L0.13 119.08L42.77 119.08L77.23 84.61L77.23 76.45Z" />
</svg>